<?xml version="1.0" standalone="no"?>
<!DOCTYPE svg PUBLIC "-//W3C//DTD SVG 20010904//EN"
 "http://www.w3.org/TR/2001/REC-SVG-20010904/DTD/svg10.dtd">
<svg version="1.0" xmlns="http://www.w3.org/2000/svg"
 width="500.000000pt" height="500.000000pt" viewBox="0 0 500.000000 500.000000"
 preserveAspectRatio="xMidYMid meet">

<g transform="translate(0.000000,500.000000) scale(0.100000,-0.100000)"
fill="#000000" stroke="none">
<path d="M2504 3225 c-421 -560 -447 -596 -428 -609 10 -8 280 -210 598 -450
318 -240 580 -435 581 -434 1 2 200 266 442 588 241 322 443 590 446 597 5 7
-203 170 -586 457 -326 245 -596 446 -599 446 -3 0 -207 -268 -454 -595z m999
94 c287 -216 526 -395 530 -399 13 -12 -793 -1082 -807 -1072 -6 5 -240 181
-521 392 -280 211 -516 388 -523 395 -11 10 58 109 385 544 219 292 401 531
406 531 4 0 242 -176 530 -391z"/>
<path d="M2842 3089 c10 -28 78 -268 78 -278 0 -5 -54 -47 -120 -92 -66 -45
-118 -85 -115 -88 3 -3 70 -8 148 -11 l142 -5 17 -55 c9 -30 29 -97 45 -149
l28 -94 34 94 c18 52 42 118 53 148 l20 53 157 -7 156 -7 -122 97 c-68 53
-123 98 -123 100 0 2 23 65 50 140 28 75 50 139 50 141 0 2 -57 -34 -127 -80
l-127 -85 -42 32 c-24 18 -80 61 -125 96 -45 36 -80 58 -77 50z m308 -205 c39
25 70 43 70 40 0 -3 -12 -39 -26 -80 -30 -85 -36 -69 55 -137 l43 -32 -82 -5
-83 -5 -25 -73 c-14 -40 -29 -69 -33 -65 -4 5 -16 40 -26 78 l-20 70 -83 5
-84 5 67 44 c37 24 67 48 67 55 0 6 -9 40 -20 76 -11 36 -20 69 -20 73 0 5 29
-15 65 -43 l66 -52 69 46z"/>
<path d="M1482 2724 c-11 -22 -186 -370 -391 -775 -204 -405 -371 -739 -371
-742 0 -4 353 -7 785 -7 432 0 785 2 785 4 0 8 -772 1540 -781 1550 -4 4 -16
-9 -27 -30z m494 -1046 c112 -225 204 -409 204 -410 0 -2 -304 -3 -675 -3
-446 0 -675 3 -673 10 2 6 153 309 337 674 l333 665 135 -265 c74 -145 227
-447 339 -671z"/>
</g>
</svg>
